{
	"asset":{
		"generator":"Khronos glTF Blender I/O v4.2.70",
		"version":"2.0"
	},
	"scene":0,
	"scenes":[
		{
			"name":"Scene",
			"nodes":[
				0
			]
		}
	],
	"nodes":[
		{
			"mesh":0,
			"name":"spot_triangulated_good",
			"rotation":[
				0.7071068286895752,
				0,
				0,
				0.7071068286895752
			]
		}
	],
	"meshes":[
		{
			"name":"spot_triangulated_good",
			"primitives":[
				{
					"attributes":{
						"POSITION":0,
						"NORMAL":1,
						"TEXCOORD_0":2
					},
					"indices":3
				}
			]
		}
	],
	"accessors":[
		{
			"bufferView":0,
			"componentType":5126,
			"count":7335,
			"max":[
				0.4715520143508911,
				1.0490000247955322,
				0.7367839813232422
			],
			"min":[
				-0.4715520143508911,
				-0.6689090132713318,
				-0.9536460041999817
			],
			"type":"VEC3"
		},
		{
			"bufferView":1,
			"componentType":5126,
			"count":7335,
			"type":"VEC3"
		},
		{
			"bufferView":2,
			"componentType":5126,
			"count":7335,
			"type":"VEC2"
		},
		{
			"bufferView":3,
			"componentType":5123,
			"count":17568,
			"type":"SCALAR"
		}
	],
	"bufferViews":[
		{
			"buffer":0,
			"byteLength":88020,
			"byteOffset":0,
			"target":34962
		},
		{
			"buffer":0,
			"byteLength":88020,
			"byteOffset":88020,
			"target":34962
		},
		{
			"buffer":0,
			"byteLength":58680,
			"byteOffset":176040,
			"target":34962
		},
		{
			"buffer":0,
			"byteLength":35136,
			"byteOffset":234720,
			"target":34963
		}
	],
	"buffers":[
		{
			"byteLength":269856,
			"uri":"cow.bin"
		}
	]
}
