{
	"asset":{
		"generator":"Khronos glTF Blender I/O v4.2.70",
		"version":"2.0"
	},
	"scene":0,
	"scenes":[
		{
			"name":"Scene",
			"nodes":[
				0
			]
		}
	],
	"nodes":[
		{
			"mesh":0,
			"name":"Grid"
		}
	],
	"meshes":[
		{
			"name":"Mesh_0",
			"primitives":[
				{
					"attributes":{
						"POSITION":0,
						"NORMAL":1,
						"TEXCOORD_0":2
					},
					"indices":3
				}
			]
		}
	],
	"accessors":[
		{
			"bufferView":0,
			"componentType":5126,
			"count":160032,
			"max":[
				2,
				0.8207595944404602,
				2
			],
			"min":[
				-2,
				0.024815000593662262,
				-2
			],
			"type":"VEC3"
		},
		{
			"bufferView":1,
			"componentType":5126,
			"count":160032,
			"type":"VEC3"
		},
		{
			"bufferView":2,
			"componentType":5126,
			"count":160032,
			"type":"VEC2"
		},
		{
			"bufferView":3,
			"componentType":5125,
			"count":955206,
			"type":"SCALAR"
		}
	],
	"bufferViews":[
		{
			"buffer":0,
			"byteLength":1920384,
			"byteOffset":0,
			"target":34962
		},
		{
			"buffer":0,
			"byteLength":1920384,
			"byteOffset":1920384,
			"target":34962
		},
		{
			"buffer":0,
			"byteLength":1280256,
			"byteOffset":3840768,
			"target":34962
		},
		{
			"buffer":0,
			"byteLength":3820824,
			"byteOffset":5121024,
			"target":34963
		}
	],
	"buffers":[
		{
			"byteLength":8941848,
			"uri":"TinyTerrain.bin"
		}
	]
}
